<svg version="1" xmlns="http://www.w3.org/2000/svg" width="533.333" height="533.333" viewBox="0 0 400.000000 400.000000"><path d="M157 23c-.8.5-1.8.7-2.2.4-.4-.3-1.7 0-2.8.6-1.5.8-2 .8-2-.2 0-.8-.3-.9-.8-.3-.7 1.1-4.9 1.8-11.4 1.9-2 .1-3.4.4-3.1.8.2.5-.4.8-1.4.9-3.4.1-5.1.7-12.4 4.4-11.6 5.8-15.6 9-24.4 19.2-2.9 3.4-5.6 5.9-6.1 5.5-.4-.4-.5-.2-.1.3.7 1.3-5.1 10.1-6.5 9.7-.5-.1-.7.2-.4.7.4.5-.5 3-1.8 5.4-1.4 2.4-2.2 4.7-1.9 5.1.4.3.1.6-.5.6-.7 0-1.2.6-1.2 1.4 0 .8-.5 2.7-1.2 4.3-.6 1.5-1.2 3.1-1.3 3.5-.2.5-.3.9-.5 1-.9 1.2-2.3 12.6-2.4 19.5-.1 3.5-.5 6.3-1.1 6.3-.5 0-.5.4.1.8 1 .6 1.9 5.5 2.7 15.2.1 1.4.4 2.7.7 3 .9.8 6.5 15.4 6.3 16.2-.2.5.2.8.8.8.6 0 .9.9.6 2-.3 1.1-.1 2.3.5 2.6.5.3.7 1.2.4 2-.3.8-.2 1.4.2 1.4 1 0 1 .2 1.5 19 .2 10.5 0 15.7-.7 16.2s-.7.8-.1.8c1.4 0 .6 11.1-.8 12.9-.9 1.1-.9 1.3 0 .8.8-.5 1 .7.6 4.5-.3 2.9-.5 7.4-.6 10 0 2.7-.5 4.8-1 4.8s-.5.6.2 1.3c.6.8.8 1.6.6 1.9-.8.8-.9 18.4-.1 19.7.4.6.1 1.1-.6 1.1-.8 0-.9.3-.3.8.6.4 1.1 2 1.1 3.7.3 6.1 3.3 20.7 4.6 22.2.6.7.8 2 .4 2.8-.3.9-.2 1.3.4 1 .5-.3 1.2.7 1.6 2.2.4 1.5 1.6 4 2.6 5.5 1.1 1.5 2 3.7 2.1 4.7 0 1.1.4 1.8.8 1.6.3-.3 1.2.8 2 2.3 1.5 2.9 3.4 5.4 6.2 8.4.9 1 1.4 1.8 1.1 1.8-.3 0 1.5 1.7 4 3.7 2.4 2.1 4.3 4.3 4.1 5-.2.7.2 1 .9.7.8-.3 2.1.5 3 1.8.9 1.3 1.7 2.2 1.9 2 .5-.8 3.6 1.1 3.1 1.9-.3.5.2.6 1 .3 1-.4 1.6-.1 1.6.7 0 .7.3.9.7.6.3-.4 1.1-.3 1.7.2 1.6 1.3 21 8.1 23 8.1 1 0 1.5.3 1.3.7-.3.5 1.1.9 3.1 1.1 3.2.2 5.1 1.5 5.2 3.3 0 .3-1.8 1.2-4 1.9s-4 1.7-4 2.2c0 .4-.6.8-1.3.8-.8 0-3 1.5-5.1 3.2-4.5 4-5.9 8.9-4.1 14.3 2.1 5.9 4.1 7.6 15.8 13.3.4.2-.4-1.3-1.8-3.4-1.8-2.6-2.2-4-1.4-4.5.8-.5.7-.8-.2-1.2-1.1-.4-1.1-.6-.1-.6.7-.1 1.1-.5.8-1-.3-.4.1-1.7.9-2.7 1.3-1.8 1.4-1.7 1.5 1.3 0 1.8.4 3.3.9 3.3.6 0 .8.9.6 2-.2 1.1.1 1.9.8 1.7.7-.1 1.1.4.9 1.1-.1.8.2 1.1.8.7.6-.3 2.2.3 3.6 1.4 3.5 2.7 4.4 2.6 4.4-.5 0-1.6.4-2.3 1.2-1.8.6.4.8.3.5-.4-.9-1.3.2-4.4 1.3-3.7.4.3.7-.3.6-1.2-.1-1.7 13.2-11.5 14.6-10.7.4.3.8.1.8-.5 0-.5 1-1.3 2.3-1.7 1.2-.4 2.2-.5 2.2-.3s1.5-.7 3.4-2l3.3-2.4-2.4 4.4c-2.3 4-2.7 7.9-1.6 12.9.7 2.9 9 10.8 12.1 11.5 7.2 1.4 13.6-.3 9.5-2.6-1.1-.6-1.8-2.2-1.8-4.1 0-2.9.1-3 1.8-1.5 1 1 2.4 1.7 3 1.7.7 0 1.2.4 1.2.8 0 .8.4.9 10.3 1.5 5.7.4 6.4.2 5-.9-1-.7-2.3-1.4-3-1.4-1.6 0-3.6-3.8-2.7-5.2.4-.7.3-.8-.4-.4-1.4.8-1.6-1.6-.4-4.2 2.6-5.2 4.2-7.7 5.1-7.5.5.1.8-.5.7-1.5 0-1 .5-1.6 1.4-1.4.8.2 1.2 0 .8-.4-1.1-1 1.2-3.5 2.5-2.7.6.3.7.1.3-.5-.4-.7-.2-1.2.5-1.2s1-.3.6-.6c-1-1 4.2-5.6 5.5-4.8.6.4.8.3.5-.3-.4-.6 0-1.6.8-2.3 1.2-1 1.8-1 3 0 1.3 1.1 1.4 1 .9-.4-.3-.9-.1-1.7.5-1.7 2-.3 2.6-.4 3.9-1.2.6-.5 1.7-.5 2.4-.1.7.5.8.3.3-.6-.6-1-.4-1.2.9-.7 1 .4 1.5.3 1.1-.3-.6-.9.8-1.4 2.8-1.1.4 0 .7-.4.7-1s.7-.8 1.6-.5c.9.4 1.3.2.8-.5-1.5-2.4 1.7-.1 7.8 5.6 3.4 3.3 6.2 6.3 6 6.7-.1.5.4.7 1 .6.7-.2 1.2.3 1 1-.1.6.1 1.1.5 1 1.5-.4 6.3 3.4 5.6 4.5-.3.5-.1.7.5.3.6-.3 1.7 0 2.5.8s3 2.1 5 2.9c3.5 1.5 3.6 1.5 5.2-.9.9-1.5 2.1-2.2 2.8-1.7.9.5.9.3.1-.8-.6-.8-.8-2.6-.5-4.1l.6-2.7 2.7 2.4c1.5 1.2 2.4 2.5 2.2 2.8-.3.3.3.4 1.3.3.9 0 1.8.4 1.8 1.1 0 .6.4 1.5.9 2s.6.2.1-.6c-.5-.9-.3-1.2.6-.9.8.3 1.3 1 1.2 1.6-.1.5.7.8 1.9.4 1.5-.4 1.9-.2 1.3.7-.6 1-.3 1.1 1.5.1 1.9-1 2.1-1.7 1.6-5.3-.4-2.3-1.4-5.5-2.2-7.1-1.9-3.9-1.8-4.3.6-2.1 5.9 5.3 7.8 1.2 4.5-9.2-1.4-4.3-2.9-8.7-3.5-9.8-4.5-9.4-8.3-18.2-8.3-19.3 0-.6-.3-1.2-.7-1.2-.3 0-1.5-1.9-2.5-4.2-2-4.5-2.1-8.3-.2-10.7.9-1.2.9-1.3 0-.7-1 .5-1.2-.4-1.1-3.6.1-2.4-.1-5.2-.5-6.3-.6-1.8-1.3-6.5-2.2-14-.9-7.8-6.2-24-10.3-31.3-1.3-2.4-2.1-5-1.8-5.8.3-.8.2-1.3-.3-1-.9.6-2.6-2.2-2.3-3.7.1-.4-.2-.7-.7-.7-.5 0-1.3-1-1.7-2.2-.4-1.3-1.6-3.5-2.7-4.9-1.1-1.6-1.6-3.2-1.2-4 .5-.7.4-1-.3-.5-.6.3-2-1.1-3.3-3.1-4.8-8-9.3-14.9-11.2-17-1.1-1.2-1.6-2.7-1.2-3.4.5-.7.4-1-.3-.5-.6.3-1.6-.2-2.1-1.2-1.7-3.2-14.2-19.7-15.2-20-.5-.2-.9-1-.9-1.8s-.5-1.4-1.1-1.4c-.6 0-.8-.7-.5-1.6.3-.8.2-1.2-.4-.9-.5.3-1.7-.7-2.7-2.2-1-1.5-2.6-3.6-3.7-4.6-1-.9-1.5-1.7-1-1.7s.1-.5-.9-1.1c-2.2-1.3-5-6.7-4.3-8.5.3-.7.1-1.6-.5-2-1.3-.8-1-17.5.3-19.2.7-.8.7-1.2 0-1.2-.6 0-.7-1.3-.2-3.4.4-1.9.5-3.7.2-4-.2-.3.1-1.3.9-2.3.8-.9.9-1.4.3-1-.9.5-1.1-1.7-1-7.8 0-4.7-.1-8.5-.4-8.5-.3 0-1.1-3-1.8-6.6-.7-3.6-2.1-8.4-3.2-10.7-1.1-2.2-2-4.7-2-5.4 0-.7-.4-1.3-.9-1.3s-1.2-.8-1.5-1.8c-.3-.9-2.6-3.8-5-6.4-2.5-2.5-4.1-5-3.8-5.4.4-.4.2-.4-.5-.1-.6.4-2-.3-3-1.5-2.6-3.2-11.6-10.5-14.7-11.9-1.4-.7-2.3-1.6-1.9-2.2.3-.6.1-.7-.4-.4-.6.4-2.8-.2-4.9-1.3-2.2-1.1-6.5-2.5-9.6-3.2-3.1-.6-5.5-1.4-5.3-1.7.2-.3-2.1-.5-5.1-.5-3 .1-5.4-.2-5.4-.7 0-.4-1.2-.7-2.7-.5-1.6.1-3.5-.1-4.4-.5-.8-.4-2.1-.4-2.9.1zm6 314c0 .5-.4 1-.9 1-.6 0-1.3-.5-1.6-1-.3-.6.1-1 .9-1 .9 0 1.6.4 1.6 1z"/><path d="M127.5 328c.3.5.8 1 1.1 1 .2 0 .4-.5.4-1 0-.6-.5-1-1.1-1-.5 0-.7.4-.4 1zM189 353.9c0 .6.4 1.3 1 1.6.6.3.7-.1.4-.9-.7-1.8-1.4-2.1-1.4-.7z"/></svg>